<?xml version="1.0" encoding="utf-8"?>
<!-- Generator: Adobe Illustrator 27.5.0, SVG Export Plug-In . SVG Version: 6.00 Build 0)  -->
<svg version="1.1" id="Layer_1" xmlns="http://www.w3.org/2000/svg" xmlns:xlink="http://www.w3.org/1999/xlink" x="0px" y="0px"
	 viewBox="0 0 32.7 32.7" style="enable-background:new 0 0 32.7 32.7;" xml:space="preserve">
<style type="text/css">
	.st0{fill:#FFFFFF;}
	.st1{fill:url(#SVGID_1_);}
	.st2{fill:none;stroke:#D0D5DD;stroke-width:0.2;}
	.st3{fill:url(#SVGID_00000161620092181517285770000006776176968023057025_);}
	.st4{fill:url(#SVGID_00000168100683969417413040000008467925455453738161_);}
	.st5{opacity:0.31;fill:url(#SVGID_00000144321015672305570230000006104291257000550076_);enable-background:new    ;}
</style>
<g>
	<path class="st0" d="M8.4,0.4h16c4.4,0,7.9,3.5,7.9,7.9v16c0,4.4-3.5,7.9-7.9,7.9h-16c-4.4,0-7.9-3.5-7.9-7.9v-16
		C0.5,4,4,0.4,8.4,0.4z"/>
	
		<linearGradient id="SVGID_1_" gradientUnits="userSpaceOnUse" x1="16.3639" y1="34.8535" x2="16.3639" y2="2.8535" gradientTransform="matrix(1 0 0 -1 0 35.1817)">
		<stop  offset="0" style="stop-color:#FFFFFF"/>
		<stop  offset="1" style="stop-color:#D0D5DD"/>
	</linearGradient>
	<path class="st1" d="M8.4,0.4h16c4.4,0,7.9,3.5,7.9,7.9v16c0,4.4-3.5,7.9-7.9,7.9h-16c-4.4,0-7.9-3.5-7.9-7.9v-16
		C0.5,4,4,0.4,8.4,0.4z"/>
	<path class="st2" d="M8.4,0.4h16c4.4,0,7.9,3.5,7.9,7.9v16c0,4.4-3.5,7.9-7.9,7.9h-16c-4.4,0-7.9-3.5-7.9-7.9v-16
		C0.5,4,4,0.4,8.4,0.4z"/>
	
		<linearGradient id="SVGID_00000176761372615696259440000007331711513141148574_" gradientUnits="userSpaceOnUse" x1="7.5631" y1="12.6398" x2="25.1985" y2="30.2753" gradientTransform="matrix(1 0 0 -1 0 35.1817)">
		<stop  offset="0" style="stop-color:#0076C1"/>
		<stop  offset="7.370000e-02" style="stop-color:#0B82C6"/>
		<stop  offset="0.2766" style="stop-color:#269ED3"/>
		<stop  offset="0.4546" style="stop-color:#36AFDA"/>
		<stop  offset="0.587" style="stop-color:#3CB5DD"/>
	</linearGradient>
	<path style="fill:url(#SVGID_00000176761372615696259440000007331711513141148574_);" d="M15.7,11.5c4.4-1.7,9.1-0.4,11.3,1.7
		c0.5,0.5,0.9,0.9,1.2,1.4c0.2-1.1,0.2-2.1,0-3.2c-0.7-3.8-4.2-5.9-7.4-4.8c-3.2,1.1-4.4,3.2-4.4,3.2s-1.2-2.1-4.4-3.2
		c-3.2-1.1-6.8,1-7.4,4.8C4,14.2,4.9,17.3,7,20c0.4,0.1,0.9,0.3,1.3,0.3c2.8,0.4,3.9-0.4,5.1-0.9c0.8-0.3,1.4,0,1.4,0.3
		c0,0.4-1.6,1.1-1.3,1.3c1.3,0.6,3,0.6,4.2-0.5c1.5-1.3,2.1-0.4,2.1-0.4S19,22,16.7,23c-1.9,0.8-3.9,1-5.7,0.8
		c1.6,1.1,3.4,2.1,5.4,2.7c5.7-1.9,9.9-6,11.4-10.3c-1-1-2.2-1.6-3.7-1.8c-2.8-0.4-3.9,0.3-5.1,0.8c-0.8,0.3-1.4-0.1-1.4-0.3
		c0.1-0.4,1.6-1.1,1.3-1.3C17.6,13,16,13,14.7,14c-1.6,1.3-2.1,0.4-2.1,0.4S13.4,12.4,15.7,11.5z M14.6,16.8h1.1v-1.1H17v1.1h1.1
		v1.3H17v1.1h-1.3v-1.1h-1.1V16.8z"/>
	
		<linearGradient id="SVGID_00000133526658139653367240000007614556237178179485_" gradientUnits="userSpaceOnUse" x1="7.5027" y1="12.6002" x2="25.1909" y2="30.2884" gradientTransform="matrix(1 0 0 -1 0 35.1817)">
		<stop  offset="0" style="stop-color:#00A482"/>
		<stop  offset="1" style="stop-color:#79DD83"/>
	</linearGradient>
	<path style="fill:url(#SVGID_00000133526658139653367240000007614556237178179485_);" d="M14.6,16.8h1.1v-1.1H17v1.1h1.1v1.3H17
		c1.6,0.8,4.6,2,8.2,2.6c1.2-1.4,2.1-2.9,2.6-4.4c-1-1-2.2-1.6-3.7-1.8c-2.8-0.4-3.9,0.3-5.1,0.8c-0.8,0.3-1.4-0.1-1.4-0.3
		c0.1-0.4,1.6-1.1,1.3-1.3C17.6,13,16,13,14.7,14c-1.6,1.3-2.1,0.4-2.1,0.4s0.8-1.9,3.1-2.8c4.4-1.7,9.1-0.4,11.3,1.7
		c0.5,0.5,0.9,0.9,1.2,1.4c0.2-1.1,0.2-2.1,0-3.2c-0.7-3.8-4.2-5.9-7.4-4.8c-3.2,1.1-4.4,3.2-4.4,3.2s-1.2-2.1-4.4-3.2
		c-1.8-0.6-3.8-0.2-5.2,1c0.7,1.5,1.5,2.8,3.8,5.6C12.4,15.5,14.6,16.8,14.6,16.8z"/>
	
		<linearGradient id="SVGID_00000116211891130551454820000004324755538672750726_" gradientUnits="userSpaceOnUse" x1="22.2246" y1="23.3461" x2="25.8924" y2="26.7401" gradientTransform="matrix(1 0 0 -1 0 35.1817)">
		<stop  offset="0" style="stop-color:#00A482"/>
		<stop  offset="1" style="stop-color:#79DD83"/>
	</linearGradient>
	<path style="opacity:0.31;fill:url(#SVGID_00000116211891130551454820000004324755538672750726_);enable-background:new    ;" d="
		M24.6,8c-3-1.5-6.1,0.8-7.1,2.1c1.7-0.4,3.2-0.5,5.1-0.1c2.8,0.6,3.8,1.6,5.1,3.1C27.5,10.2,25.7,8.5,24.6,8z"/>
</g>
</svg>
